<?xml version="1.0" encoding="UTF-8"?>
<svg version="1.1" xmlns="http://www.w3.org/2000/svg" width="335" height="307">
<path d="M0 0 C39.87813443 2.75731167 77.61514638 15.13964371 110 39 C110.90782227 39.65186279 110.90782227 39.65186279 111.83398438 40.31689453 C139.30501558 60.13441787 161.41416852 87.81439422 167.3125 121.75 C168.40930843 130.23198515 168.38888873 138.1931226 166.9375 146.625 C165.96490961 152.3578039 166.08855825 157.28367514 167 163 C170.95430567 190.24077239 162.33961532 214.61162907 146.15844727 236.31616211 C132.28817613 254.31254328 114.77260876 268.86957642 95 280 C94.31776367 280.38752441 93.63552734 280.77504883 92.93261719 281.17431641 C70.74263727 293.67385894 47.04185652 301.60615278 22 306 C21.26910156 306.13277344 20.53820312 306.26554687 19.78515625 306.40234375 C13.26001449 307.40939523 6.58097943 307.08318654 0 307 C-0.15855469 305.87464844 -0.31710938 304.74929688 -0.48046875 303.58984375 C-5.76070502 268.03885075 -25.89482318 239.43147303 -54.44335938 218.06347656 C-63.25077518 211.61638853 -72.33587226 206.05296512 -82 201 C-82.96172119 200.48445557 -82.96172119 200.48445557 -83.94287109 199.95849609 C-110.02705486 185.9958245 -137.66475063 179.63503092 -167 177 C-167 176.34 -167 175.68 -167 175 C-165.98353394 174.90295776 -165.98353394 174.90295776 -164.9465332 174.80395508 C-137.86507222 172.14398526 -112.81043687 166.24846173 -88 155 C-110.24980268 140.16679821 -141.00514585 135.59561137 -167 133 C-163.98804589 131.29668503 -161.53099821 130.66069341 -158.09765625 130.32421875 C-157.13585449 130.22149658 -156.17405273 130.11877441 -155.18310547 130.01293945 C-153.63840576 129.85184692 -153.63840576 129.85184692 -152.0625 129.6875 C-111.07181902 124.9113179 -71.59650238 108.13142191 -41.16796875 79.9765625 C-39 78 -39 78 -35.9375 75.625 C-31.38118944 71.55340333 -27.74834037 66.81015693 -24 62 C-23.32710937 61.154375 -22.65421875 60.30875 -21.9609375 59.4375 C-8.21877622 41.47961594 -1.87120707 22.31484254 0 0 Z " fill="#1AE5E6" transform="translate(167,0)"/>
<path d="M0 0 C2.10720119 1.12912987 4.14326547 2.33808556 6.1809082 3.58837891 C6.93090088 4.04100098 7.68089355 4.49362305 8.45361328 4.95996094 C42.21750219 25.60516845 69.61356313 53.52574638 80.54418945 92.27978516 C81.4358928 97.29623916 81.38391207 102.13384612 81.2434082 107.21337891 C95.2376404 106.29265649 108.67748578 104.82113693 122.2434082 101.21337891 C122.93563477 101.03436035 123.62786133 100.8553418 124.34106445 100.67089844 C166.1515679 89.7200633 209.64366744 64.89799441 232.62231445 27.09619141 C237.49513265 18.43079422 241.78358547 9.53985759 245.2434082 0.21337891 C249.88836335 4.85833406 249.37194204 14.63844692 249.5559082 20.96337891 C248.85332529 52.37296784 232.13975172 78.55437452 210.05200195 99.75634766 C199.83664447 109.22769954 188.36997938 117.38707311 176.2434082 124.21337891 C175.56117188 124.60090332 174.87893555 124.98842773 174.17602539 125.38769531 C151.98604547 137.88723785 128.28526472 145.81953169 103.2434082 150.21337891 C102.51250977 150.34615234 101.78161133 150.47892578 101.02856445 150.61572266 C94.50342269 151.62277413 87.82438763 151.29656544 81.2434082 151.21337891 C81.08485352 150.08802734 80.92629883 148.96267578 80.76293945 147.80322266 C75.48270318 112.25222966 55.34858502 83.64485194 26.80004883 62.27685547 C17.99263302 55.82976744 8.90753594 50.26634402 -0.7565918 45.21337891 C-1.39773926 44.86968262 -2.03888672 44.52598633 -2.69946289 44.171875 C-28.78364665 30.20920341 -56.42134243 23.84840983 -85.7565918 21.21337891 C-85.7565918 20.55337891 -85.7565918 19.89337891 -85.7565918 19.21337891 C-85.07894775 19.14868408 -84.40130371 19.08398926 -83.703125 19.01733398 C-57.84185945 16.47721305 -33.31694686 11.33110707 -9.67456055 0.31494141 C-5.99584059 -1.07381231 -3.6824603 -1.64904616 0 0 Z " fill="#FC349A" transform="translate(85.756591796875,155.78662109375)"/>
</svg>
